<?xml version="1.0" encoding="utf-8"?>
<!-- Generator: Adobe Illustrator 15.0.0, SVG Export Plug-In . SVG Version: 6.00 Build 0)  -->
<!DOCTYPE svg PUBLIC "-//W3C//DTD SVG 1.1//EN" "http://www.w3.org/Graphics/SVG/1.1/DTD/svg11.dtd">
<svg version="1.1" id="Шар_1" xmlns="http://www.w3.org/2000/svg" xmlns:xlink="http://www.w3.org/1999/xlink" x="0px" y="0px"
	 width="28.346px" height="51.023px" viewBox="28.347 48.189 28.346 51.023" enable-background="new 28.347 48.189 28.346 51.023"
	 xml:space="preserve">
<path fill="#87888A" d="M42.52,48.914c-7.815,0-14.173,6.358-14.173,14.173c0,6.472,4.364,11.94,10.303,13.63v18.17
	c0,2.029,1.732,3.675,3.871,3.675s3.871-1.646,3.871-3.675v-18.17c5.938-1.689,10.303-7.158,10.303-13.63
	C56.693,55.272,50.335,48.914,42.52,48.914z M46.39,74.166c-1.213,0.424-2.515,0.658-3.871,0.658s-2.658-0.232-3.871-0.658
	c-4.577-1.604-7.869-5.963-7.869-11.079c0-6.473,5.266-11.739,11.739-11.739c6.472,0,11.739,5.266,11.739,11.739
	C54.258,68.203,50.966,72.562,46.39,74.166z"/>
</svg>
